<?xml version="1.0" standalone="no"?>
<!DOCTYPE svg PUBLIC "-//W3C//DTD SVG 20010904//EN"
 "http://www.w3.org/TR/2001/REC-SVG-20010904/DTD/svg10.dtd">
<svg version="1.0" xmlns="http://www.w3.org/2000/svg"
 width="786.000000pt" height="730.000000pt" viewBox="0 0 786.000000 730.000000"
 preserveAspectRatio="xMidYMid meet">

<g transform="translate(0.000000,730.000000) scale(0.100000,-0.100000)"
fill="#000000" stroke="none">
<path d="M4000 5660 c-25 -4 -76 -12 -115 -18 -107 -15 -469 -162 -538 -219
-15 -12 -44 -25 -65 -29 -20 -4 -59 -19 -87 -34 -170 -92 -363 -180 -394 -180
-9 0 -27 -7 -41 -15 -14 -8 -59 -32 -100 -53 -148 -75 -355 -185 -365 -192 -5
-5 -62 -34 -125 -65 -63 -31 -123 -61 -133 -66 -10 -6 -37 -20 -60 -31 -23
-12 -53 -29 -67 -39 -14 -9 -98 -53 -186 -98 -89 -45 -173 -92 -188 -106 -15
-14 -34 -25 -42 -25 -8 0 -46 -16 -84 -35 -59 -30 -78 -46 -117 -100 -61 -84
-71 -117 -87 -258 -22 -206 17 -351 126 -463 60 -62 59 -79 -11 -123 -154 -99
-223 -329 -189 -631 8 -74 21 -151 30 -170 9 -19 23 -62 33 -95 10 -33 35 -88
56 -123 22 -35 39 -66 39 -71 0 -10 71 -77 97 -90 12 -6 30 -11 41 -11 16 0
119 -36 287 -99 155 -59 336 -124 380 -136 107 -30 718 -235 920 -309 50 -18
164 -57 255 -85 91 -29 194 -63 230 -77 36 -13 74 -24 85 -24 11 -1 45 -10 75
-21 30 -11 109 -38 175 -59 66 -21 134 -43 150 -48 198 -68 483 -84 585 -32
21 11 46 20 55 20 9 0 37 11 63 24 64 32 377 239 472 311 69 52 143 105 195
137 77 48 139 91 150 105 6 7 26 19 45 28 39 17 78 42 207 129 49 33 111 74
138 91 28 18 97 63 154 101 56 38 127 85 156 104 188 124 283 190 302 211 44
48 57 124 26 151 -28 25 -137 77 -174 84 -63 12 -70 44 -45 208 16 105 21 111
153 178 98 49 140 87 149 134 8 45 -2 98 -24 116 -17 15 -89 33 -174 43 -25 3
-51 12 -57 19 -18 22 -1 256 25 348 5 16 195 138 215 138 18 0 73 57 90 95 38
84 15 114 -111 146 -46 11 -92 25 -101 30 -40 21 -61 245 -34 365 10 43 18 88
19 98 1 12 20 31 51 49 103 60 134 106 115 172 -7 24 -24 55 -39 69 -27 26
-152 66 -291 93 -41 8 -91 19 -110 25 -19 6 -55 13 -80 15 -25 2 -58 8 -75 14
-38 13 -154 36 -225 45 -30 3 -75 13 -100 20 -57 18 -168 40 -245 50 -33 4
-67 8 -75 9 -54 7 -114 19 -170 35 -74 22 -160 37 -275 51 -85 10 -195 30
-260 49 -22 6 -80 17 -130 25 -49 7 -117 20 -150 29 -32 9 -71 16 -85 16 -14
0 -77 13 -140 30 -63 16 -119 29 -125 28 -5 0 -30 -4 -55 -8z m-12 -99 c20
-10 193 -47 267 -56 28 -4 68 -13 90 -21 22 -7 94 -21 159 -30 66 -8 163 -26
215 -39 53 -13 119 -26 146 -30 61 -8 229 -39 350 -65 50 -10 126 -26 170 -35
44 -9 105 -23 135 -31 30 -8 92 -18 138 -24 45 -5 92 -14 103 -20 28 -16 264
-60 315 -60 24 0 55 -5 70 -10 15 -6 88 -24 162 -39 123 -27 152 -36 141 -44
-87 -65 -197 -127 -441 -248 -31 -15 -59 -33 -63 -39 -3 -5 -23 -18 -43 -28
-20 -10 -73 -38 -117 -62 -44 -24 -100 -53 -125 -65 -158 -77 -322 -161 -365
-188 -27 -16 -135 -74 -240 -127 -104 -53 -237 -124 -295 -156 -116 -66 -197
-106 -310 -155 -67 -29 -87 -33 -195 -37 -103 -3 -137 0 -240 22 -66 14 -142
30 -170 35 -27 6 -95 19 -150 31 -55 12 -183 39 -285 60 -102 22 -201 44 -220
50 -19 5 -49 10 -67 10 -18 0 -56 8 -85 19 -29 10 -91 26 -138 35 -47 9 -94
19 -105 21 -11 2 -65 11 -120 20 -55 9 -102 18 -105 20 -3 2 -44 11 -90 19
-47 8 -150 29 -230 46 -160 34 -390 69 -517 79 -45 3 -87 11 -93 17 -14 14 64
66 195 128 50 24 119 57 155 75 36 17 76 37 90 45 29 16 173 85 305 145 50 23
99 47 110 53 25 14 123 63 355 175 178 87 245 118 650 307 102 48 208 98 235
112 39 19 218 91 233 94 2 0 11 -4 20 -9z m2342 -773 c-21 -58 -24 -243 -6
-332 18 -85 34 -122 63 -148 25 -23 98 -48 139 -48 19 0 34 -4 34 -8 0 -9 -66
-58 -143 -108 -22 -14 -87 -50 -145 -81 -59 -30 -114 -61 -122 -68 -8 -7 -49
-31 -90 -55 -41 -23 -122 -69 -180 -102 -58 -34 -154 -88 -215 -121 -60 -33
-139 -79 -175 -102 -36 -24 -84 -50 -105 -60 -22 -9 -51 -27 -65 -40 -14 -13
-61 -42 -105 -65 -44 -24 -87 -48 -95 -55 -8 -7 -31 -21 -50 -30 -19 -10 -48
-28 -63 -41 -16 -13 -35 -24 -42 -24 -8 0 -29 -9 -47 -21 -18 -12 -71 -43
-118 -71 -74 -43 -122 -70 -240 -134 -14 -8 -31 -14 -38 -14 -7 0 -20 -4 -30
-10 -36 -20 -141 -27 -210 -14 -87 17 -477 123 -601 163 -35 12 -72 21 -83 21
-11 0 -86 17 -167 39 -161 42 -365 92 -481 116 -41 9 -111 27 -155 40 -44 13
-118 31 -165 40 -47 10 -112 26 -144 36 -33 10 -68 19 -78 19 -11 0 -65 12
-121 26 -56 14 -151 36 -212 50 -60 14 -159 37 -220 52 -115 27 -226 33 -278
13 -18 -7 -36 -7 -52 -1 -43 17 -117 102 -153 177 -85 180 -32 442 105 512 29
15 62 14 131 -3 31 -8 125 -26 207 -41 83 -14 172 -30 198 -35 27 -6 61 -10
76 -10 15 0 54 -9 86 -20 32 -11 77 -20 99 -20 38 0 95 -11 241 -45 33 -8 107
-24 165 -36 58 -11 152 -31 210 -44 58 -14 131 -29 164 -36 32 -6 82 -19 110
-29 28 -9 78 -20 111 -24 33 -4 128 -23 210 -41 83 -19 188 -41 235 -49 47 -8
146 -25 220 -39 302 -55 341 -59 406 -41 32 8 74 19 91 24 18 4 48 17 67 28
18 11 49 23 67 27 19 4 54 19 79 33 25 15 68 38 95 53 85 43 199 109 215 124
9 8 63 35 120 60 58 26 128 62 155 80 28 18 67 40 88 49 21 8 59 29 83 46 25
16 56 33 70 36 14 4 53 25 87 48 34 23 82 48 107 55 25 8 70 29 101 48 31 18
60 33 64 33 4 0 19 8 33 19 25 17 263 149 322 179 40 20 145 59 149 56 2 -2
-2 -18 -9 -36z m-71 -915 c-9 -58 -10 -269 0 -302 11 -41 52 -62 140 -74 44
-6 81 -14 81 -18 0 -5 -10 -14 -22 -20 -13 -7 -72 -44 -133 -84 -60 -40 -159
-101 -218 -136 -60 -35 -119 -71 -131 -79 -13 -8 -90 -59 -172 -114 -151 -100
-189 -125 -324 -211 -41 -26 -120 -78 -175 -114 -108 -71 -132 -86 -155 -97
-8 -5 -46 -31 -84 -58 -39 -28 -84 -60 -102 -71 -17 -11 -78 -51 -135 -89
-232 -155 -298 -196 -385 -239 -50 -25 -98 -52 -105 -59 -8 -8 -34 -25 -58
-39 -53 -29 -66 -47 -57 -82 14 -58 63 -53 181 16 33 20 92 53 130 73 39 20
84 47 102 60 17 13 36 24 41 24 5 0 17 9 27 20 10 11 44 35 74 52 90 50 154
90 178 111 12 11 39 29 61 41 21 11 79 48 128 81 49 33 116 76 148 95 32 19
79 49 104 67 26 17 79 53 117 78 39 26 94 64 123 84 29 20 68 45 86 56 83 50
131 82 155 101 26 21 182 121 275 176 27 16 51 26 54 24 3 -3 0 -37 -7 -76
-24 -135 13 -227 99 -245 39 -9 100 -36 100 -44 -1 -3 -26 -23 -58 -45 -31
-21 -123 -84 -205 -140 -81 -55 -172 -117 -201 -136 -30 -19 -88 -57 -129 -85
-42 -27 -99 -63 -127 -80 -28 -16 -91 -59 -138 -94 -112 -82 -282 -195 -331
-220 -20 -11 -44 -27 -51 -36 -8 -10 -23 -21 -35 -26 -11 -5 -32 -17 -46 -27
-14 -9 -46 -30 -70 -46 -24 -15 -90 -59 -146 -97 -56 -38 -104 -69 -107 -69
-3 0 -27 -16 -52 -36 -69 -52 -117 -74 -200 -89 -125 -24 -277 -18 -409 16
-40 10 -247 77 -340 109 -173 60 -217 74 -281 90 -39 10 -81 23 -94 30 -12 6
-56 22 -98 35 -43 13 -106 34 -142 46 -36 12 -162 54 -280 94 -118 40 -246 82
-285 94 -74 23 -211 71 -285 101 -25 10 -71 24 -104 30 -32 7 -81 23 -110 36
-28 13 -58 24 -67 24 -19 0 -230 69 -244 80 -5 4 -23 10 -40 14 -16 4 -64 20
-105 36 -41 16 -103 39 -137 51 -59 20 -64 25 -101 88 -35 59 -51 99 -83 206
-17 58 -39 221 -39 286 0 131 44 260 101 302 29 21 20 23 209 -38 25 -8 72
-21 105 -28 33 -8 101 -26 150 -42 320 -97 327 -99 580 -160 61 -14 151 -37
200 -50 50 -13 108 -27 130 -30 49 -8 281 -67 390 -100 44 -14 114 -33 155
-44 75 -20 135 -37 390 -113 125 -38 144 -41 265 -42 l130 -1 100 44 c55 24
106 48 113 54 15 12 16 49 0 65 -21 21 -96 13 -166 -15 -61 -26 -78 -28 -187
-27 -88 1 -132 5 -165 18 -25 10 -86 28 -136 41 -51 13 -119 35 -153 49 -33
14 -69 26 -79 26 -18 0 -60 12 -165 46 -26 9 -82 24 -125 34 -42 10 -102 25
-132 34 -30 9 -100 27 -155 40 -55 13 -119 31 -143 39 -23 9 -70 21 -105 27
-34 6 -91 20 -127 30 -36 10 -90 24 -120 30 -58 13 -174 44 -330 90 -52 16
-138 40 -190 54 -248 65 -300 84 -300 105 0 10 10 23 23 29 85 42 139 50 222
32 22 -4 85 -17 140 -29 55 -11 123 -27 150 -36 28 -9 75 -20 105 -25 30 -5
89 -17 130 -26 41 -9 95 -20 120 -24 25 -4 68 -15 95 -23 28 -9 73 -19 100
-22 28 -4 70 -14 95 -22 58 -19 309 -85 470 -123 69 -17 159 -39 200 -49 41
-11 111 -29 155 -40 324 -83 403 -104 505 -134 258 -78 321 -85 455 -57 54 11
106 27 115 35 9 8 25 15 36 15 10 0 46 16 79 36 33 20 83 49 110 64 28 15 100
58 160 95 61 38 155 95 210 127 131 78 225 138 250 158 11 9 36 23 55 30 43
16 148 77 175 101 11 10 91 53 178 97 87 44 169 90 183 103 22 21 232 148 245
149 3 0 2 -21 -2 -47z"/>
<path d="M6135 4269 c-77 -38 -167 -84 -200 -102 -33 -18 -132 -71 -220 -117
-88 -47 -167 -89 -176 -95 -9 -5 -35 -21 -59 -33 -23 -13 -71 -44 -106 -68
-34 -24 -67 -44 -72 -44 -5 0 -36 -17 -68 -38 -122 -79 -171 -110 -239 -147
-38 -20 -92 -52 -120 -70 -82 -53 -190 -115 -201 -115 -6 0 -46 -24 -90 -52
-44 -29 -106 -69 -137 -88 -59 -37 -96 -88 -74 -102 29 -19 134 2 121 24 -3 5
16 18 43 30 26 11 108 56 182 99 74 44 136 79 138 79 3 0 23 13 46 29 23 16
88 55 145 87 57 33 126 73 155 91 29 18 71 41 95 53 24 11 67 35 95 54 29 19
68 41 87 50 19 9 62 33 95 54 53 34 205 118 290 160 17 9 41 24 54 34 13 10
31 18 40 18 10 0 47 20 83 44 36 24 76 47 88 51 39 12 158 93 169 114 11 20
-1 72 -16 70 -5 0 -71 -32 -148 -70z"/>
<path d="M1720 4073 c-8 -3 -21 -12 -27 -21 -11 -13 -7 -19 20 -37 17 -12 46
-25 62 -28 87 -15 152 -30 169 -39 19 -10 89 -24 166 -34 25 -3 99 -19 165
-34 66 -16 147 -34 180 -39 33 -6 94 -18 135 -26 41 -8 86 -18 100 -20 14 -3
78 -12 142 -20 64 -8 123 -17 130 -20 17 -7 178 -41 303 -65 55 -11 141 -29
190 -41 159 -37 215 -35 215 9 0 23 -76 61 -145 73 -27 4 -93 18 -145 29 -52
12 -126 28 -165 35 -38 7 -131 27 -205 43 -74 17 -164 33 -200 37 -36 4 -83
13 -105 20 -22 7 -58 15 -80 18 -22 3 -69 11 -105 18 -36 6 -74 13 -85 15 -11
1 -92 19 -180 38 -145 31 -197 41 -360 66 -27 5 -68 13 -90 19 -43 11 -62 12
-85 4z"/>
<path d="M4142 3793 c-36 -14 -82 -157 -89 -280 -8 -141 27 -257 87 -288 57
-30 79 -10 59 55 -35 120 -40 247 -14 406 5 25 2 57 -5 78 -12 36 -15 39 -38
29z"/>
<path d="M2160 3751 c-24 -16 16 -48 70 -56 25 -4 70 -15 100 -25 49 -16 164
-41 245 -53 17 -3 73 -16 126 -30 53 -14 127 -31 165 -37 38 -6 116 -22 172
-36 57 -14 127 -30 155 -34 49 -8 189 -39 267 -60 54 -14 174 -23 213 -16 24
5 34 11 33 23 -3 19 -87 54 -171 72 -33 7 -98 21 -145 32 -156 38 -483 106
-640 134 -41 7 -129 24 -195 38 -216 44 -373 63 -395 48z"/>
<path d="M6095 3527 c-22 -13 -74 -46 -115 -74 -41 -27 -106 -68 -145 -91 -38
-23 -108 -66 -155 -96 -47 -30 -137 -86 -200 -123 -63 -37 -128 -79 -145 -93
-16 -14 -59 -43 -95 -65 -65 -39 -396 -256 -480 -315 -83 -58 -330 -215 -385
-245 -57 -31 -165 -113 -165 -125 0 -4 8 -14 19 -24 17 -16 22 -15 85 19 75
40 142 81 282 173 52 34 98 62 101 62 10 0 175 105 368 233 56 37 103 67 107
67 3 0 35 18 69 40 35 21 105 64 154 95 50 31 99 62 110 68 11 7 42 26 70 43
27 17 70 43 95 57 25 15 77 47 115 72 39 24 99 61 135 81 36 21 76 47 90 59
14 12 55 43 93 69 65 46 107 100 90 116 -21 21 -59 19 -98 -3z"/>
<path d="M1662 2918 c-19 -19 -15 -26 26 -47 44 -22 287 -94 408 -121 44 -10
90 -23 102 -29 11 -6 80 -27 154 -46 248 -65 315 -84 359 -100 24 -9 76 -25
114 -35 69 -17 161 -43 340 -96 175 -51 232 -60 279 -44 20 6 36 16 36 21 0
19 -38 45 -90 60 -30 10 -107 33 -170 52 -63 20 -155 45 -205 57 -152 37 -206
52 -310 82 -55 16 -120 34 -145 39 -25 5 -65 16 -90 24 -55 18 -220 69 -275
84 -22 7 -107 27 -190 46 -82 19 -177 41 -210 49 -73 19 -117 20 -133 4z"/>
<path d="M6065 2782 c-33 -21 -100 -63 -150 -92 -141 -83 -737 -474 -960 -628
-33 -23 -118 -81 -190 -128 -71 -48 -170 -115 -218 -150 -49 -35 -104 -71
-122 -80 -18 -8 -41 -24 -51 -35 -43 -47 47 -57 137 -15 50 23 207 120 311
191 24 16 122 81 218 144 96 64 234 156 306 206 72 49 138 95 146 100 9 6 75
50 148 98 72 49 155 103 185 120 29 18 105 67 169 110 175 118 214 161 167
187 -28 14 -30 14 -96 -28z"/>
<path d="M3942 2583 c-45 -18 -103 -263 -103 -438 0 -86 5 -131 26 -208 37
-144 67 -190 132 -203 26 -5 31 -3 36 17 3 13 -2 43 -13 68 -11 25 -29 89 -41
141 -19 85 -21 113 -16 265 3 93 11 203 18 243 9 54 9 79 1 97 -12 25 -17 28
-40 18z"/>
<path d="M1983 2573 c-18 -7 -16 -27 5 -46 20 -18 250 -109 347 -138 33 -9
143 -45 245 -79 394 -131 636 -208 670 -215 19 -4 88 -25 153 -46 122 -40 166
-48 205 -35 63 21 -21 72 -233 143 -169 57 -319 103 -336 103 -8 0 -19 4 -24
8 -11 9 -157 57 -295 96 -104 29 -166 48 -295 91 -153 50 -238 75 -255 75 -8
0 -33 9 -55 19 -43 19 -112 32 -132 24z"/>
</g>
</svg>
