<?xml version="1.0" standalone="no"?>
<!DOCTYPE svg PUBLIC "-//W3C//DTD SVG 20010904//EN"
 "http://www.w3.org/TR/2001/REC-SVG-20010904/DTD/svg10.dtd">
<svg version="1.0" xmlns="http://www.w3.org/2000/svg"
 width="572.000000pt" height="562.000000pt" viewBox="0 0 572.000000 562.000000"
 preserveAspectRatio="xMidYMid meet">

<g transform="translate(0.000000,562.000000) scale(0.100000,-0.100000)"
fill="#000000" stroke="none">
<path d="M4300 5233 c-42 -21 -107 -61 -145 -89 -85 -60 -253 -220 -342 -326
-37 -43 -68 -77 -70 -75 -2 2 6 30 18 63 44 122 22 365 -38 422 -28 26 -80 29
-121 8 -56 -30 -170 -172 -225 -281 -15 -31 -53 -128 -80 -205 -36 -104 -100
-362 -122 -495 -8 -44 -16 -89 -18 -100 -3 -11 -8 -62 -12 -112 -4 -51 -9 -93
-12 -93 -2 0 -46 14 -96 32 -84 29 -103 32 -217 32 -138 1 -184 -11 -306 -79
-199 -111 -448 -457 -637 -885 -8 -19 -30 -66 -47 -105 -18 -38 -47 -106 -65
-150 -33 -83 -83 -201 -115 -270 -9 -22 -39 -89 -65 -150 -25 -60 -55 -128
-64 -150 -88 -197 -235 -557 -316 -770 -84 -223 -179 -510 -195 -590 -17 -81
-17 -234 -1 -263 25 -47 97 -74 139 -53 9 4 44 21 77 36 67 30 112 61 316 217
190 145 315 247 487 400 19 17 59 50 90 76 172 138 710 668 892 878 378 436
565 705 608 874 27 109 31 136 32 220 0 140 -58 300 -151 412 -22 26 -36 49
-32 51 5 3 58 20 118 40 110 35 372 129 410 147 11 5 43 18 70 30 130 56 316
154 323 172 2 4 10 8 17 8 25 0 202 178 224 226 20 42 21 50 9 88 -11 34 -21
45 -62 64 -71 34 -135 37 -244 13 -52 -12 -107 -28 -122 -36 -58 -30 -50 -13
33 74 159 168 243 309 302 514 22 74 14 132 -24 177 -24 30 -34 34 -87 38 -53
4 -66 0 -134 -35z m148 -97 c8 -63 -58 -229 -134 -338 -63 -91 -105 -139 -264
-302 -110 -112 -180 -175 -240 -214 -196 -129 -366 -275 -447 -384 -33 -46
-53 -60 -53 -37 0 10 154 326 188 384 45 78 183 264 256 345 23 25 75 83 116
130 137 154 190 207 286 286 96 80 243 167 273 162 9 -2 17 -15 19 -32z m-778
-26 c20 -49 16 -194 -9 -285 -36 -133 -59 -194 -145 -376 -20 -42 -36 -80 -36
-84 0 -4 -15 -33 -34 -64 -84 -139 -176 -324 -176 -353 0 -8 -4 -18 -9 -23 -5
-6 -11 -18 -13 -28 -2 -15 -6 -16 -20 -5 -14 11 -15 20 -7 63 6 28 16 84 24
125 33 178 66 322 128 560 37 139 107 302 163 376 42 56 105 124 115 124 4 0
12 -14 19 -30z m861 -717 c9 -9 -9 -33 -67 -92 -43 -45 -82 -81 -86 -81 -3 0
-30 -16 -60 -36 -50 -33 -287 -155 -353 -181 -17 -6 -75 -30 -130 -52 -55 -21
-140 -54 -190 -72 -49 -17 -101 -36 -115 -42 -74 -30 -155 -56 -159 -51 -9 9
153 165 244 235 50 38 95 73 100 77 54 44 353 202 450 238 28 10 52 20 55 23
3 4 12 7 20 8 8 1 49 11 90 22 79 21 182 23 201 4z m-481 -393 c0 -5 -5 -10
-11 -10 -5 0 -7 5 -4 10 3 6 8 10 11 10 2 0 4 -4 4 -10z m-1093 -109 c158 -38
287 -114 404 -238 140 -150 199 -309 183 -493 -5 -66 -9 -78 -20 -69 -8 6 -14
16 -14 21 0 6 -20 38 -44 72 -147 204 -392 376 -446 311 -21 -25 -2 -49 87
-105 141 -90 272 -230 354 -378 l24 -44 -24 -41 c-65 -115 -217 -321 -373
-504 -43 -51 -78 -98 -78 -105 0 -7 -21 19 -47 57 -52 78 -175 206 -243 252
-95 64 -159 94 -180 83 -23 -12 -27 -54 -7 -70 6 -5 46 -32 87 -59 83 -53 215
-185 273 -273 20 -31 37 -59 37 -63 0 -28 -402 -440 -650 -667 l-95 -87 -50
52 c-92 96 -221 183 -307 207 -79 23 -97 -33 -24 -78 25 -15 70 -43 101 -62
62 -38 195 -165 195 -185 0 -7 -37 -44 -82 -81 -46 -38 -119 -100 -163 -139
-128 -114 -347 -296 -421 -349 -38 -28 -91 -67 -119 -87 -70 -52 -153 -99
-185 -105 -44 -9 -48 27 -19 171 6 28 14 61 19 75 5 14 21 66 36 115 15 50 30
95 34 100 4 6 11 25 15 43 4 18 13 45 21 60 8 15 14 32 14 39 0 7 7 27 14 45
8 18 27 65 41 103 51 133 78 200 100 250 12 28 35 82 50 120 15 39 33 84 41
100 7 17 31 75 54 130 23 55 47 114 55 130 8 17 23 53 35 80 12 28 28 62 36
77 8 14 14 34 14 43 0 43 151 -12 297 -108 40 -26 79 -47 88 -47 24 0 41 45
26 73 -23 43 -195 140 -308 173 -40 12 -59 22 -54 29 5 5 34 71 66 145 68 163
82 196 100 235 45 98 85 187 85 192 0 12 121 244 154 296 36 55 39 58 69 51
82 -17 196 -75 283 -145 41 -32 75 -37 94 -14 21 25 -1 57 -86 120 -78 59
-210 125 -252 125 -23 0 -23 1 9 48 18 26 53 72 78 102 212 251 385 327 618
271z m-390 -657 c-3 -3 -12 -4 -19 -1 -8 3 -5 6 6 6 11 1 17 -2 13 -5z m-640
-916 c-3 -8 -6 -5 -6 6 -1 11 2 17 5 13 3 -3 4 -12 1 -19z"/>
</g>
</svg>
