<?xml version="1.0" standalone="no"?>
<!DOCTYPE svg PUBLIC "-//W3C//DTD SVG 20010904//EN"
 "http://www.w3.org/TR/2001/REC-SVG-20010904/DTD/svg10.dtd">
<svg version="1.0" xmlns="http://www.w3.org/2000/svg"
 width="698.000000pt" height="626.000000pt" viewBox="0 0 698.000000 626.000000"
 preserveAspectRatio="xMidYMid meet">

<g transform="translate(0.000000,626.000000) scale(0.100000,-0.100000)"
fill="#000000" stroke="none">
<path d="M3788 5756 c-76 -40 -348 -303 -420 -406 -134 -190 -204 -401 -215
-650 -6 -133 10 -243 66 -453 27 -103 30 -270 6 -344 -21 -64 -45 -88 -79 -79
-36 9 -42 44 -26 151 22 156 22 184 5 273 -19 96 -63 194 -130 287 -54 75
-124 143 -150 145 -67 7 -84 -19 -61 -90 19 -58 22 -226 5 -297 -31 -129 -66
-226 -129 -351 -38 -75 -82 -177 -97 -227 -24 -80 -27 -106 -28 -235 0 -130 3
-152 24 -210 36 -96 123 -231 185 -287 140 -129 330 -218 488 -230 61 -5 76
-3 87 11 23 28 0 63 -46 69 -191 26 -415 159 -519 307 -83 118 -109 205 -109
360 0 141 15 196 101 370 126 258 158 373 164 600 0 9 70 -99 70 -108 0 -5 8
-24 18 -43 18 -35 21 -153 11 -399 -5 -109 9 -150 64 -191 25 -19 44 -24 87
-24 70 0 117 33 157 112 28 56 28 59 28 232 -1 155 -4 185 -24 251 -75 244
-73 499 6 720 40 116 71 172 147 270 55 72 202 227 227 241 15 7 16 4 8 -29
-39 -157 -37 -365 6 -477 14 -38 31 -83 37 -100 31 -81 179 -298 258 -375 29
-29 155 -190 191 -245 56 -85 114 -191 124 -225 4 -14 13 -38 21 -55 30 -69
55 -261 48 -370 -15 -228 -88 -384 -269 -583 -91 -99 -249 -202 -335 -219 -56
-10 -95 -36 -95 -64 0 -23 3 -24 75 -27 140 -6 299 73 444 221 57 57 157 203
198 286 115 237 124 573 22 829 -75 189 -148 301 -337 521 -149 174 -231 309
-280 459 -17 54 -21 90 -21 187 0 145 20 248 71 363 l36 83 -20 27 c-24 32
-57 38 -95 18z"/>
<path d="M3582 4304 c-12 -8 -22 -21 -22 -29 0 -7 33 -69 73 -137 94 -156 101
-179 95 -289 -7 -114 -35 -174 -160 -340 -132 -176 -168 -267 -175 -443 -5
-111 6 -146 42 -146 35 0 43 18 50 110 7 90 51 238 88 300 11 19 41 61 66 92
143 178 211 322 211 446 0 51 -26 155 -52 206 -35 68 -129 205 -155 226 -31
24 -33 24 -61 4z"/>
<path d="M3485 2524 c-102 -13 -391 -43 -615 -64 -52 -5 -117 -12 -145 -15
-65 -8 -282 -30 -470 -49 -144 -15 -321 -48 -358 -68 -26 -13 -62 -93 -82
-182 -16 -69 -17 -87 -6 -155 7 -42 24 -102 37 -133 13 -32 24 -62 24 -68 0
-6 -28 -10 -66 -10 -51 0 -70 -4 -79 -17 -18 -24 -8 -48 28 -64 42 -18 61 -62
82 -182 15 -88 15 -102 1 -156 -20 -80 -56 -135 -103 -157 -34 -17 -38 -23
-41 -61 -3 -41 -2 -42 35 -53 21 -6 85 -18 143 -26 259 -37 290 -41 675 -99
50 -8 153 -23 230 -34 77 -12 183 -28 235 -36 52 -8 133 -19 180 -26 47 -6
101 -15 120 -20 19 -5 87 -16 150 -24 63 -8 140 -19 170 -24 69 -12 209 -12
275 -1 28 5 102 18 165 30 63 12 147 28 185 35 169 31 231 44 245 49 8 3 53
13 100 22 47 8 114 21 150 29 36 7 112 22 170 34 473 93 500 99 533 132 15 15
27 37 27 48 0 18 11 46 54 140 6 13 11 65 11 115 0 97 -17 151 -71 221 -30 40
-30 45 0 45 33 0 89 41 100 72 13 38 -6 78 -38 78 -93 0 -148 184 -104 349 13
48 19 56 48 66 18 6 39 20 46 31 12 17 11 24 -6 51 -33 54 -57 60 -289 73
-117 6 -234 14 -260 16 -47 4 -340 24 -666 43 -99 7 -245 18 -325 26 -150 15
-248 23 -335 29 -27 2 -99 -2 -160 -10z m320 -104 c94 -6 195 -13 225 -16 30
-2 163 -11 295 -19 132 -8 301 -19 375 -24 74 -5 203 -13 285 -16 83 -4 167
-8 187 -9 77 -4 44 -13 -84 -24 -165 -14 -381 -39 -793 -91 -400 -50 -514 -62
-555 -58 -25 3 -88 10 -140 16 -52 6 -113 13 -135 15 -22 2 -51 7 -65 10 -14
4 -79 11 -145 16 -66 5 -212 19 -325 30 -186 18 -501 45 -622 52 -80 5 -53 18
37 18 47 0 147 7 222 15 76 8 190 19 253 25 219 19 426 41 575 59 83 10 170
17 195 15 25 -2 122 -8 215 -14z m-1685 -180 c30 -5 127 -16 215 -25 88 -9
221 -22 295 -30 74 -8 221 -23 325 -34 212 -22 435 -48 480 -55 17 -3 62 -8
100 -11 140 -11 166 -20 135 -51 -5 -5 -19 -45 -30 -88 -26 -102 -26 -214 0
-297 10 -35 17 -65 15 -67 -2 -2 -19 1 -37 6 -18 6 -64 13 -103 17 -115 9
-407 45 -455 55 -25 5 -79 12 -120 15 -41 3 -97 10 -125 15 -27 6 -106 17
-175 26 -69 8 -170 22 -225 29 -55 7 -167 21 -250 30 l-150 16 -38 42 c-44 50
-77 147 -77 228 0 46 26 148 45 179 7 12 100 12 175 0z m3230 2 c0 -5 -6 -29
-13 -53 -33 -113 -15 -259 44 -347 36 -53 36 -59 2 -60 -16 0 -57 -6 -93 -12
-98 -17 -231 -39 -370 -61 -69 -11 -163 -26 -210 -34 -87 -13 -292 -46 -455
-71 -49 -7 -157 -23 -240 -34 -82 -11 -162 -22 -176 -25 -21 -5 -32 1 -58 30
-17 20 -31 44 -31 53 0 10 -6 24 -12 31 -9 8 -13 51 -13 144 1 121 3 137 27
188 27 59 39 72 73 76 11 1 79 10 150 19 234 29 358 43 510 59 83 8 179 19
215 24 36 6 142 19 235 31 94 12 211 28 260 35 109 16 155 18 155 7z m-3250
-603 c139 -20 242 -33 505 -64 183 -22 280 -34 353 -46 116 -17 434 -61 636
-86 l138 -17 26 -41 c41 -64 62 -147 62 -241 0 -85 -11 -129 -53 -211 -26 -51
-31 -53 -88 -43 -97 19 -367 67 -444 79 -33 5 -118 19 -190 31 -251 42 -311
51 -419 65 -60 8 -132 19 -160 24 -28 6 -85 13 -126 16 -41 4 -84 10 -95 15
-19 7 -75 15 -290 41 -49 6 -92 13 -95 16 -2 2 1 12 8 21 34 49 55 103 63 161
10 77 -5 228 -27 269 -20 39 -18 45 19 38 17 -4 97 -16 177 -27z m3294 -36
c71 -89 83 -184 36 -288 -10 -22 -21 -55 -25 -73 -8 -41 -14 -43 -198 -82 -78
-17 -158 -35 -177 -39 -19 -5 -98 -21 -175 -36 -77 -14 -156 -30 -175 -35 -86
-21 -236 -58 -249 -62 -11 -2 -14 8 -12 46 4 80 -10 234 -24 253 -10 14 -16
15 -28 5 -11 -10 -17 -47 -22 -150 -8 -155 -15 -182 -45 -182 -12 0 -29 -4
-38 -9 -9 -4 -37 -11 -62 -13 l-45 -5 0 166 c0 141 -3 171 -18 199 -33 61 -43
29 -50 -150 -6 -149 -13 -227 -22 -237 -6 -6 -205 -28 -210 -23 -2 2 3 15 11
28 24 35 54 169 54 236 0 74 -23 168 -56 227 -13 24 -23 45 -21 47 4 4 243 41
312 49 33 3 125 17 205 31 80 14 188 32 240 40 52 8 131 20 175 28 212 36 486
78 557 84 9 1 36 -23 62 -55z m-3064 -553 c0 -5 -2 -10 -4 -10 -3 0 -8 5 -11
10 -3 6 -1 10 4 10 6 0 11 -4 11 -10z"/>
<path d="M4978 2035 c-2 -3 -65 -12 -139 -20 -198 -22 -295 -34 -378 -46 -40
-6 -130 -17 -200 -24 -293 -31 -326 -37 -344 -54 -29 -28 -12 -51 36 -51 38 0
282 27 462 51 44 6 139 17 210 25 265 29 476 61 488 73 5 5 6 18 2 30 -6 18
-14 21 -69 21 -34 0 -65 -2 -68 -5z"/>
<path d="M4870 1840 c-109 -11 -334 -40 -355 -45 -11 -2 -79 -12 -150 -21
-332 -42 -411 -56 -434 -79 -12 -12 -12 -16 -1 -31 11 -12 24 -15 55 -10 211
32 611 81 920 113 66 6 85 16 85 44 0 17 -29 41 -47 37 -4 0 -37 -4 -73 -8z"/>
<path d="M2152 1471 c-8 -5 -12 -19 -10 -32 3 -23 9 -25 103 -36 298 -35 800
-97 975 -121 160 -22 206 -23 221 -6 9 11 10 20 2 32 -11 19 -219 48 -898 126
-127 15 -157 18 -280 31 -33 3 -69 8 -80 10 -11 2 -26 0 -33 -4z"/>
<path d="M2070 1286 c0 -37 -31 -31 358 -81 56 -7 114 -16 128 -19 14 -4 74
-13 132 -21 59 -8 145 -21 192 -29 47 -8 119 -19 160 -26 41 -6 111 -18 155
-26 209 -37 389 -40 402 -7 12 31 -21 42 -172 57 -242 25 -568 69 -995 137
-184 29 -257 38 -312 38 -44 1 -48 -1 -48 -23z"/>
</g>
</svg>
