<?xml version="1.0" standalone="no"?>
<!DOCTYPE svg PUBLIC "-//W3C//DTD SVG 20010904//EN"
 "http://www.w3.org/TR/2001/REC-SVG-20010904/DTD/svg10.dtd">
<svg version="1.0" xmlns="http://www.w3.org/2000/svg"
 width="572.000000pt" height="562.000000pt" viewBox="0 0 572.000000 562.000000"
 preserveAspectRatio="xMidYMid meet">

<g transform="translate(0.000000,562.000000) scale(0.100000,-0.100000)"
fill="#000000" stroke="none">
<path d="M1173 4919 c-75 -37 -90 -112 -38 -191 13 -20 70 -76 126 -124 56
-48 120 -112 143 -143 71 -94 136 -160 173 -172 22 -7 61 -9 109 -4 92 8 84
13 315 -172 295 -237 399 -304 573 -374 194 -77 270 -142 404 -349 41 -63 116
-167 167 -231 97 -121 139 -191 150 -250 10 -54 -12 -155 -54 -244 -42 -90
-151 -284 -187 -331 -29 -40 -94 -63 -194 -70 -63 -5 -80 -2 -106 14 -29 19
-31 23 -27 69 3 26 0 60 -6 75 -23 59 -117 86 -182 52 -30 -15 -68 -80 -69
-115 0 -12 -13 -18 -45 -22 -91 -13 -165 -72 -208 -166 -17 -36 -21 -66 -22
-141 0 -89 2 -100 34 -163 66 -132 178 -203 336 -214 141 -9 309 43 357 110
19 27 23 45 23 113 l0 82 68 14 c37 8 69 12 71 9 2 -3 9 -53 15 -111 35 -343
41 -595 16 -800 -8 -69 -15 -129 -15 -133 0 -12 -83 -45 -181 -71 -108 -29
-141 -54 -137 -105 5 -56 43 -64 288 -65 190 -1 208 1 240 20 51 30 74 70 109
196 101 366 116 499 121 1105 0 12 7 28 16 35 175 139 241 260 301 552 23 114
27 156 27 321 1 156 -2 201 -17 250 -28 94 -66 184 -103 248 l-34 57 109 134
c287 352 341 440 341 558 0 65 -18 105 -70 152 -50 45 -105 71 -255 119 -263
84 -976 228 -1280 259 -143 14 -155 10 -155 -54 0 -51 20 -88 72 -133 54 -46
237 -138 331 -166 56 -17 86 -34 137 -77 106 -89 168 -108 255 -77 55 20 56
20 169 -24 56 -21 128 -45 161 -52 33 -7 63 -15 68 -19 6 -5 -69 -73 -221
-200 -43 -36 -56 -42 -70 -33 -347 224 -848 478 -1287 651 -118 47 -167 77
-302 187 -132 107 -232 166 -346 206 -98 34 -157 36 -214 8z m253 -133 c110
-53 165 -90 269 -181 97 -84 160 -119 407 -226 441 -189 879 -410 1097 -553
259 -171 425 -342 521 -540 30 -62 60 -163 60 -203 0 -34 -54 -46 -240 -50
l-166 -5 -120 154 c-66 84 -159 212 -206 283 -90 136 -195 249 -279 298 -24
14 -96 47 -159 72 -63 26 -142 63 -175 83 -82 49 -263 183 -425 316 -74 60
-154 121 -178 134 -40 23 -50 24 -133 17 l-90 -7 -42 45 c-23 24 -60 70 -82
101 -22 32 -87 97 -147 147 -154 128 -172 175 -61 167 35 -3 83 -20 149 -52z
m1504 -242 c298 -50 521 -96 720 -149 360 -95 437 -139 427 -242 -9 -84 -40
-131 -315 -476 l-94 -119 -48 54 c-26 29 -81 82 -123 116 l-76 64 92 76 c175
144 277 244 277 268 0 31 -16 38 -144 63 -59 12 -168 44 -241 71 l-133 49 -66
-20 -66 -21 -42 21 c-24 12 -67 43 -95 69 -43 39 -69 53 -141 75 -95 30 -251
103 -292 137 l-25 21 60 -6 c33 -4 179 -26 325 -51z m850 -1784 c-25 -216
-111 -471 -183 -538 l-24 -23 -5 59 c-13 133 -106 235 -235 257 l-42 7 33 67
c44 87 63 156 72 259 l7 82 136 1 c75 0 161 6 191 12 l55 12 3 -45 c2 -25 -2
-92 -8 -150z m-396 -373 c80 -45 93 -112 61 -312 -12 -71 -14 -132 -10 -219 7
-142 -9 -439 -31 -564 -15 -88 -95 -405 -115 -454 -15 -37 -55 -48 -163 -47
-89 1 -90 1 -56 15 66 27 105 52 117 75 6 13 19 85 28 159 29 240 18 544 -39
1077 -11 95 -12 143 -4 169 30 110 121 153 212 101z m-754 -6 c14 -27 2 -51
-26 -51 -19 0 -24 5 -24 25 0 13 8 29 18 34 22 13 20 14 32 -8z m-55 -152 c35
-10 37 -13 22 -24 -9 -6 -37 -50 -63 -96 -25 -46 -60 -99 -77 -117 -35 -37
-110 -92 -125 -92 -18 0 -42 80 -42 138 1 124 73 201 190 202 30 0 73 -5 95
-11z m495 -84 l0 -54 -52 -15 c-29 -8 -66 -18 -83 -21 -61 -13 -93 -26 -99
-40 -3 -8 2 -47 10 -87 12 -58 13 -77 3 -95 -30 -55 -197 -94 -316 -73 -61 10
-133 37 -133 50 0 3 12 13 28 22 54 33 142 134 184 213 27 50 52 84 68 91 14
7 80 17 147 23 68 6 147 19 175 29 29 10 56 16 61 14 4 -2 7 -28 7 -57z"/>
</g>
</svg>
